<svg width="4" height="16" viewBox="0 0 4 16" fill="none" xmlns="http://www.w3.org/2000/svg">
<path d="M1.99996 8.8335C2.4602 8.8335 2.83329 8.4604 2.83329 8.00016C2.83329 7.53993 2.4602 7.16683 1.99996 7.16683C1.53972 7.16683 1.16663 7.53993 1.16663 8.00016C1.16663 8.4604 1.53972 8.8335 1.99996 8.8335Z" stroke="#9CA3AF" stroke-width="1.66667" stroke-linecap="round" stroke-linejoin="round"/>
<path d="M1.99996 3.00016C2.4602 3.00016 2.83329 2.62707 2.83329 2.16683C2.83329 1.70659 2.4602 1.3335 1.99996 1.3335C1.53972 1.3335 1.16663 1.70659 1.16663 2.16683C1.16663 2.62707 1.53972 3.00016 1.99996 3.00016Z" stroke="#9CA3AF" stroke-width="1.66667" stroke-linecap="round" stroke-linejoin="round"/>
<path d="M1.99996 14.6668C2.4602 14.6668 2.83329 14.2937 2.83329 13.8335C2.83329 13.3733 2.4602 13.0002 1.99996 13.0002C1.53972 13.0002 1.16663 13.3733 1.16663 13.8335C1.16663 14.2937 1.53972 14.6668 1.99996 14.6668Z" stroke="#9CA3AF" stroke-width="1.66667" stroke-linecap="round" stroke-linejoin="round"/>
</svg>
