<svg width="24" height="24" viewBox="0 0 24 24" fill="none" xmlns="http://www.w3.org/2000/svg">
<rect width="24" height="24" rx="12" fill="#EAF2FF"/>
<mask id="mask0_855_50525" style="mask-type:alpha" maskUnits="userSpaceOnUse" x="7" y="7" width="10" height="10">
<path d="M12.6247 7.83325C12.6247 7.48807 12.3449 7.20825 11.9997 7.20825C11.6545 7.20825 11.3747 7.48807 11.3747 7.83325V11.3749H7.83301C7.48783 11.3749 7.20801 11.6547 7.20801 11.9999C7.20801 12.3451 7.48783 12.6249 7.83301 12.6249H11.3747V16.1666C11.3747 16.5118 11.6545 16.7916 11.9997 16.7916C12.3449 16.7916 12.6247 16.5118 12.6247 16.1666V12.6249H16.1663C16.5115 12.6249 16.7913 12.3451 16.7913 11.9999C16.7913 11.6547 16.5115 11.3749 16.1663 11.3749H12.6247V7.83325Z" fill="#006FFD"/>
</mask>
<g mask="url(#mask0_855_50525)">
<rect x="7" y="7" width="10" height="10" fill="#006FFD"/>
</g>
</svg>
