<svg width="18" height="20" viewBox="0 0 18 20" fill="none" xmlns="http://www.w3.org/2000/svg">
<path d="M13 14.9999C13.4167 14.9999 13.7707 14.8539 14.062 14.5619C14.354 14.2706 14.5 13.9166 14.5 13.4999C14.5 13.0832 14.354 12.7292 14.062 12.4379C13.7707 12.1459 13.4167 11.9999 13 11.9999C12.5833 11.9999 12.2293 12.1459 11.938 12.4379C11.646 12.7292 11.5 13.0832 11.5 13.4999C11.5 13.9166 11.646 14.2706 11.938 14.5619C12.2293 14.8539 12.5833 14.9999 13 14.9999ZM13 17.9999C13.5167 17.9999 13.9917 17.8789 14.425 17.6369C14.8583 17.3956 15.2083 17.0749 15.475 16.6749C15.1083 16.4582 14.7167 16.2916 14.3 16.1749C13.8833 16.0582 13.45 15.9999 13 15.9999C12.55 15.9999 12.1167 16.0582 11.7 16.1749C11.2833 16.2916 10.8917 16.4582 10.525 16.6749C10.7917 17.0749 11.1417 17.3956 11.575 17.6369C12.0083 17.8789 12.4833 17.9999 13 17.9999ZM13 19.9999C11.6167 19.9999 10.4377 19.5126 9.463 18.5379C8.48767 17.5626 8 16.3832 8 14.9999C8 13.6166 8.48767 12.4372 9.463 11.4619C10.4377 10.4872 11.6167 9.9999 13 9.9999C14.3833 9.9999 15.5627 10.4872 16.538 11.4619C17.5127 12.4372 18 13.6166 18 14.9999C18 16.3832 17.5127 17.5626 16.538 18.5379C15.5627 19.5126 14.3833 19.9999 13 19.9999ZM7.762 19.9249C7.68733 19.9249 7.60833 19.9082 7.525 19.8749C5.34167 19.2082 3.54167 17.8582 2.125 15.8249C0.708333 13.7916 0 11.5499 0 9.0999V4.3749C0 3.95824 0.121 3.58324 0.363 3.2499C0.604333 2.91657 0.916667 2.6749 1.3 2.5249L7.3 0.274902C7.53333 0.191569 7.76667 0.149902 8 0.149902C8.23333 0.149902 8.46667 0.191569 8.7 0.274902L14.7 2.5249C15.0833 2.6749 15.396 2.91657 15.638 3.2499C15.8793 3.58324 16 3.95824 16 4.3749V8.6749C15.6833 8.54157 15.3583 8.42057 15.025 8.3119C14.6917 8.2039 14.35 8.1249 14 8.0749V4.3999L8 2.1499L2 4.3999V9.0999C2 9.88324 2.104 10.6666 2.312 11.4499C2.52067 12.2332 2.81267 12.9792 3.188 13.6879C3.56267 14.3959 4.01667 15.0499 4.55 15.6499C5.08333 16.2499 5.675 16.7499 6.325 17.1499C6.50833 17.6832 6.74167 18.1832 7.025 18.6499C7.30833 19.1166 7.64167 19.5416 8.025 19.9249H7.762Z" fill="#A1A1AA"/>
</svg>
