<svg width="24" height="24" viewBox="0 0 24 24" fill="none" xmlns="http://www.w3.org/2000/svg">
<mask id="mask0_1913_26337" style="mask-type:alpha" maskUnits="userSpaceOnUse" x="0" y="0" width="24" height="24">
<rect width="24" height="24" fill="#D9D9D9"/>
</mask>
<g mask="url(#mask0_1913_26337)">
<path d="M17 17.0004C17.4167 17.0004 17.7707 16.8544 18.062 16.5624C18.354 16.2711 18.5 15.9171 18.5 15.5004C18.5 15.0837 18.354 14.7297 18.062 14.4384C17.7707 14.1464 17.4167 14.0004 17 14.0004C16.5833 14.0004 16.2293 14.1464 15.938 14.4384C15.646 14.7297 15.5 15.0837 15.5 15.5004C15.5 15.9171 15.646 16.2711 15.938 16.5624C16.2293 16.8544 16.5833 17.0004 17 17.0004ZM17 20.0004C17.5167 20.0004 17.9917 19.8794 18.425 19.6374C18.8583 19.3961 19.2083 19.0754 19.475 18.6754C19.1083 18.4587 18.7167 18.2921 18.3 18.1754C17.8833 18.0587 17.45 18.0004 17 18.0004C16.55 18.0004 16.1167 18.0587 15.7 18.1754C15.2833 18.2921 14.8917 18.4587 14.525 18.6754C14.7917 19.0754 15.1417 19.3961 15.575 19.6374C16.0083 19.8794 16.4833 20.0004 17 20.0004ZM17 22.0004C15.6167 22.0004 14.4377 21.5131 13.463 20.5384C12.4877 19.5631 12 18.3837 12 17.0004C12 15.6171 12.4877 14.4377 13.463 13.4624C14.4377 12.4877 15.6167 12.0004 17 12.0004C18.3833 12.0004 19.5627 12.4877 20.538 13.4624C21.5127 14.4377 22 15.6171 22 17.0004C22 18.3837 21.5127 19.5631 20.538 20.5384C19.5627 21.5131 18.3833 22.0004 17 22.0004ZM11.762 21.9254C11.6873 21.9254 11.6083 21.9087 11.525 21.8754C9.34167 21.2087 7.54167 19.8587 6.125 17.8254C4.70833 15.7921 4 13.5504 4 11.1004V6.37539C4 5.95872 4.121 5.58372 4.363 5.25039C4.60433 4.91706 4.91667 4.67539 5.3 4.52539L11.3 2.27539C11.5333 2.19206 11.7667 2.15039 12 2.15039C12.2333 2.15039 12.4667 2.19206 12.7 2.27539L18.7 4.52539C19.0833 4.67539 19.396 4.91706 19.638 5.25039C19.8793 5.58372 20 5.95872 20 6.37539V10.6754C19.6833 10.5421 19.3583 10.4211 19.025 10.3124C18.6917 10.2044 18.35 10.1254 18 10.0754V6.40039L12 4.15039L6 6.40039V11.1004C6 11.8837 6.104 12.6671 6.312 13.4504C6.52067 14.2337 6.81267 14.9797 7.188 15.6884C7.56267 16.3964 8.01667 17.0504 8.55 17.6504C9.08333 18.2504 9.675 18.7504 10.325 19.1504C10.5083 19.6837 10.7417 20.1837 11.025 20.6504C11.3083 21.1171 11.6417 21.5421 12.025 21.9254H11.762Z" fill="#00AF52"/>
</g>
</svg>
