<svg width="16" height="21" viewBox="0 0 16 21" fill="none" xmlns="http://www.w3.org/2000/svg">
<path d="M8 21L0.8 15.6C0.55 15.4167 0.354333 15.1833 0.213 14.9C0.0709998 14.6167 0 14.3167 0 14V2C0 1.45 0.196 0.979 0.588 0.587C0.979333 0.195667 1.45 0 2 0H14C14.55 0 15.021 0.195667 15.413 0.587C15.8043 0.979 16 1.45 16 2V14C16 14.3167 15.9293 14.6167 15.788 14.9C15.646 15.1833 15.45 15.4167 15.2 15.6L8 21ZM8 18.5L14 14V2H2V14L8 18.5ZM6.95 13L12.6 7.35L11.2 5.9L6.95 10.15L4.85 8.05L3.4 9.45L6.95 13Z" fill="#A1A1AA"/>
</svg>
