<svg width="25" height="25" viewBox="0 0 25 25" fill="none" xmlns="http://www.w3.org/2000/svg">
<circle cx="12.1744" cy="12.4294" r="11.6611" fill="#EFF6FF" stroke="#2563EB" stroke-width="0.677852"/>
<path d="M6.51336 10.1794C6.51336 9.5382 7.0332 9.01837 7.67444 9.01837H8.86378C9.15258 9.01837 9.42955 8.90364 9.63377 8.69943L9.39411 8.45977L9.63377 8.69943L10.4748 7.85844C10.6925 7.6407 10.9878 7.51837 11.2958 7.51837H13.0531C13.3611 7.51837 13.6564 7.6407 13.8741 7.85844L14.7151 8.69943C14.9193 8.90364 15.1963 9.01837 15.4851 9.01837H16.6744C17.3157 9.01837 17.8355 9.5382 17.8355 10.1794V16.1794C17.8355 16.8207 17.3157 17.3405 16.6744 17.3405H7.67444C7.0332 17.3405 6.51336 16.8207 6.51336 16.1794V10.1794ZM12.1744 15.7684C13.6043 15.7684 14.7634 14.6093 14.7634 13.1794C14.7634 11.7496 13.6043 10.5905 12.1744 10.5905C10.7446 10.5905 9.58551 11.7496 9.58551 13.1794C9.58551 14.6093 10.7446 15.7684 12.1744 15.7684Z" fill="#2563EB" stroke="#2563EB" stroke-width="0.677852"/>
</svg>
