<svg width="10" height="13" viewBox="0 0 10 13" fill="none" xmlns="http://www.w3.org/2000/svg">
<path fill-rule="evenodd" clip-rule="evenodd" d="M9.70685 6.793C9.89455 6.98053 10 7.23484 10 7.5C10 7.76516 9.89455 8.01947 9.70685 8.207L5.70184 12.207C5.51408 12.3945 5.25945 12.4998 4.99395 12.4998C4.72846 12.4998 4.47383 12.3945 4.28607 12.207L0.281063 8.207C0.0986771 8.0184 -0.00224342 7.7658 3.785e-05 7.5036C0.00231912 7.2414 0.107619 6.99059 0.29326 6.80518C0.4789 6.61977 0.730027 6.5146 0.992552 6.51233C1.25508 6.51005 1.50799 6.61084 1.69683 6.793L3.9927 9.086V1.5C3.9927 1.23478 4.09819 0.98043 4.28596 0.792893C4.47373 0.605357 4.72841 0.5 4.99395 0.5C5.2595 0.5 5.51417 0.605357 5.70195 0.792893C5.88972 0.98043 5.99521 1.23478 5.99521 1.5V9.086L8.29108 6.793C8.47884 6.60553 8.73347 6.50021 8.99896 6.50021C9.26446 6.50021 9.51908 6.60553 9.70685 6.793Z" fill="#EF4444"/>
</svg>
