<svg width="24" height="24" viewBox="0 0 24 24" fill="none" xmlns="http://www.w3.org/2000/svg">
<g clip-path="url(#clip0_1913_25651)">
<path fill-rule="evenodd" clip-rule="evenodd" d="M6 2.33333C6 2.04133 9.01067 0 12 0C14.9893 0 18 2.042 18 2.33333C18 3.37333 17.8893 3.98933 17.796 4.32467C17.734 4.54467 17.528 4.66667 17.2993 4.66667H6.70067C6.472 4.66667 6.266 4.54467 6.204 4.32467C6.11067 3.98933 6 3.37333 6 2.33333ZM11 2C10.8232 2 10.6536 2.07024 10.5286 2.19526C10.4036 2.32029 10.3333 2.48986 10.3333 2.66667C10.3333 2.84348 10.4036 3.01305 10.5286 3.13807C10.6536 3.2631 10.8232 3.33333 11 3.33333H13C13.1768 3.33333 13.3464 3.2631 13.4714 3.13807C13.5964 3.01305 13.6667 2.84348 13.6667 2.66667C13.6667 2.48986 13.5964 2.32029 13.4714 2.19526C13.3464 2.07024 13.1768 2 13 2H11Z" fill="#9CA3AF"/>
<path fill-rule="evenodd" clip-rule="evenodd" d="M6.69207 8.812C4.47207 8.12533 5.03207 6.89867 5.87874 6H18.3067C18.9841 6.86533 19.3474 8.03267 17.3001 8.73133C17.3838 9.47401 17.3104 10.226 17.0848 10.9385C16.8592 11.651 16.4863 12.3082 15.9904 12.8673C15.4945 13.4265 14.8866 13.8751 14.2061 14.1843C13.5257 14.4934 12.7879 14.656 12.0405 14.6617C11.2931 14.6673 10.5529 14.5158 9.86789 14.217C9.18285 13.9182 8.56826 13.4787 8.06397 12.9271C7.55968 12.3755 7.17696 11.724 6.94062 11.015C6.70428 10.306 6.6196 9.55519 6.69207 8.81133V8.812ZM11.8187 9.33333C13.5801 9.33333 14.9454 9.24 15.9921 9.07733C16.0265 9.62088 15.9495 10.1657 15.7659 10.6785C15.5823 11.1912 15.2959 11.6611 14.9243 12.0592C14.5527 12.4574 14.1037 12.7755 13.6048 12.994C13.106 13.2125 12.5677 13.3268 12.0231 13.33C11.4785 13.3331 10.939 13.225 10.4376 13.0122C9.93623 12.7995 9.48359 12.4866 9.10742 12.0927C8.73126 11.6989 8.43948 11.2324 8.24999 10.7218C8.06049 10.2112 7.97726 9.66724 8.00541 9.12333C8.98074 9.258 10.2307 9.33333 11.8187 9.33333Z" fill="#9CA3AF"/>
<path fill-rule="evenodd" clip-rule="evenodd" d="M17.6114 19.0667C17.0083 18.1259 16.1783 17.3519 15.1977 16.816C14.2171 16.2801 13.1175 15.9995 12 16C10.8821 15.9993 9.78195 16.2799 8.80098 16.8161C7.82 17.3522 6.98974 18.1267 6.38669 19.068C6.16288 18.7233 5.81915 18.4739 5.42202 18.368L4.13402 18.0233C3.70711 17.9089 3.25223 17.9687 2.86941 18.1896C2.4866 18.4105 2.20721 18.7744 2.09269 19.2013L1.57536 21.1333C1.5187 21.3448 1.50424 21.5653 1.53281 21.7823C1.56139 21.9993 1.63243 22.2086 1.74188 22.3981C1.85133 22.5877 1.99705 22.7538 2.17071 22.8871C2.34438 23.0203 2.54259 23.118 2.75402 23.1747L4.04136 23.52C4.25789 23.5783 4.484 23.5922 4.70604 23.5608C4.92809 23.5294 5.14148 23.4534 5.33336 23.3373C5.33389 23.5141 5.40463 23.6835 5.53003 23.8082C5.65543 23.9328 5.82521 24.0025 6.00202 24.002C6.17883 24.0015 6.34819 23.9307 6.47284 23.8053C6.59749 23.6799 6.66722 23.5101 6.66669 23.3333V22.6667C6.66669 22.4127 6.68469 22.1627 6.71869 21.918L10.188 22.848C10.3491 23.1927 10.6051 23.4843 10.926 23.6886C11.247 23.8929 11.6196 24.0014 12 24.0014C12.3805 24.0014 12.7531 23.8929 13.074 23.6886C13.395 23.4843 13.651 23.1927 13.812 22.848L17.2814 21.918C17.3154 22.1627 17.3334 22.4127 17.3334 22.6667V23.3333C17.3325 23.5101 17.4019 23.6801 17.5263 23.8057C17.6507 23.9314 17.8199 24.0025 17.9967 24.0033C18.1735 24.0042 18.3434 23.9348 18.4691 23.8104C18.5947 23.686 18.6658 23.5168 18.6667 23.34C19.04 23.564 19.5014 23.642 19.9554 23.52L21.2434 23.1753C21.4548 23.1187 21.653 23.021 21.8267 22.8877C22.0003 22.7545 22.146 22.5884 22.2555 22.3988C22.365 22.2092 22.436 22 22.4646 21.783C22.4931 21.5659 22.4787 21.3454 22.422 21.134L21.904 19.202C21.7895 18.7751 21.5101 18.4112 21.1273 18.1903C20.7445 17.9694 20.2896 17.9096 19.8627 18.024L18.5747 18.3687C18.1785 18.4742 17.8353 18.7226 17.6114 19.066V19.0667ZM7.06869 20.6313C7.42881 19.7604 8.01309 19.0003 8.76214 18.4283C9.51118 17.8563 10.3983 17.4928 11.3334 17.3747V20.114C11.0346 20.22 10.7652 20.3953 10.5473 20.6256C10.3295 20.8558 10.1693 21.1345 10.08 21.4387L7.06869 20.632V20.6313ZM16.9314 20.6313C16.5712 19.7604 15.9869 19.0003 15.2378 18.4284C14.4888 17.8564 13.6017 17.4928 12.6667 17.3747V20.114C13.2694 20.3273 13.74 20.8207 13.92 21.4387L16.9314 20.632V20.6313ZM12 22.6667C12.1768 22.6667 12.3464 22.5964 12.4714 22.4714C12.5965 22.3464 12.6667 22.1768 12.6667 22C12.6667 21.8232 12.5965 21.6536 12.4714 21.5286C12.3464 21.4036 12.1768 21.3333 12 21.3333C11.8232 21.3333 11.6536 21.4036 11.5286 21.5286C11.4036 21.6536 11.3334 21.8232 11.3334 22C11.3334 22.1768 11.4036 22.3464 11.5286 22.4714C11.6536 22.5964 11.8232 22.6667 12 22.6667Z" fill="#9CA3AF"/>
</g>
<defs>
<clipPath id="clip0_1913_25651">
<rect width="24" height="24" fill="white"/>
</clipPath>
</defs>
</svg>
