<svg width="18" height="18" viewBox="0 0 18 18" fill="none" xmlns="http://www.w3.org/2000/svg">
<path d="M13.5662 13.7556C14.0054 13.4208 14.0901 12.7934 13.7553 12.3541C13.4205 11.9149 12.793 11.8302 12.3537 12.165L13.5662 13.7556ZM8.99996 14.3337V15.3337C9.00541 15.3337 9.01086 15.3336 9.01631 15.3335L8.99996 14.3337ZM1.66663 9.00034L0.78547 8.52752C0.631836 8.81383 0.626887 9.15693 0.772199 9.44756L1.66663 9.00034ZM5.64686 5.83512C6.0858 5.49994 6.16992 4.87238 5.83474 4.43344C5.49955 3.9945 4.872 3.91038 4.43306 4.24556L5.64686 5.83512ZM7.37205 2.85333C6.8343 2.9792 6.5004 3.51717 6.62628 4.05492C6.75215 4.59267 7.29012 4.92656 7.82787 4.80069L7.37205 2.85333ZM8.99996 3.66701L8.99761 4.66701H8.99996V3.66701ZM16.3333 9.00034L17.2152 9.47175C17.3681 9.1857 17.3728 8.84325 17.2277 8.55313L16.3333 9.00034ZM14.1281 10.4832C13.7726 10.9057 13.8269 11.5366 14.2494 11.8922C14.672 12.2478 15.3029 12.1934 15.6584 11.7709L14.1281 10.4832ZM11.1449 11.0954C11.5214 10.6913 11.4991 10.0586 11.095 9.68206C10.691 9.30556 10.0582 9.3279 9.68168 9.73195L11.1449 11.0954ZM8.26835 8.31862C8.67241 7.94211 8.69474 7.30934 8.31824 6.90529C7.94173 6.50123 7.30896 6.47889 6.9049 6.8554L8.26835 8.31862ZM12.3537 12.165C11.3839 12.9043 10.2029 13.3139 8.98361 13.3338L9.01631 15.3335C10.6625 15.3066 12.2568 14.7537 13.5662 13.7556L12.3537 12.165ZM8.99996 13.3337C7.06613 13.3337 5.47881 12.2268 4.31283 10.9831C3.73896 10.3709 3.29581 9.75499 2.99625 9.29115C2.84709 9.06019 2.73516 8.86948 2.6619 8.73925C2.62531 8.6742 2.59848 8.62444 2.58159 8.59252C2.57315 8.57657 2.5672 8.56509 2.56377 8.55842C2.56205 8.55508 2.56097 8.55294 2.56051 8.55205C2.56029 8.5516 2.56022 8.55146 2.56031 8.55164C2.56035 8.55173 2.56044 8.5519 2.56056 8.55215C2.56062 8.55227 2.56075 8.55252 2.56078 8.55258C2.56091 8.55284 2.56105 8.55313 1.66663 9.00034C0.772199 9.44756 0.772362 9.44788 0.772536 9.44823C0.772607 9.44837 0.772792 9.44874 0.772935 9.44903C0.773222 9.4496 0.773551 9.45025 0.773921 9.45099C0.774661 9.45246 0.775568 9.45425 0.776641 9.45637C0.778786 9.4606 0.781596 9.46611 0.785068 9.47287C0.792011 9.48637 0.801607 9.50485 0.813836 9.52796C0.838287 9.57416 0.873308 9.63899 0.918748 9.71977C1.00955 9.8812 1.14241 10.1072 1.31617 10.3762C1.66244 10.9124 2.17763 11.6297 2.85376 12.351C4.18777 13.7739 6.26712 15.3337 8.99996 15.3337V13.3337ZM2.54778 9.47317C3.30962 8.05341 4.36628 6.81299 5.64686 5.83512L4.43306 4.24556C2.92582 5.39651 1.68215 6.85647 0.78547 8.52752L2.54778 9.47317ZM7.82787 4.80069C8.21129 4.71094 8.60383 4.66608 8.99761 4.66701L9.00231 2.66701C8.4535 2.66572 7.90641 2.72825 7.37205 2.85333L7.82787 4.80069ZM8.99996 4.66701C10.9338 4.66701 12.5211 5.7739 13.6871 7.01762C14.261 7.62975 14.7041 8.2457 15.0037 8.70953C15.1528 8.94049 15.2648 9.1312 15.338 9.26144C15.3746 9.32649 15.4014 9.37625 15.4183 9.40816C15.4268 9.42412 15.4327 9.43559 15.4362 9.44227C15.4379 9.44561 15.439 9.44774 15.4394 9.44864C15.4396 9.44909 15.4397 9.44922 15.4396 9.44904C15.4396 9.44896 15.4395 9.44879 15.4394 9.44854C15.4393 9.44841 15.4392 9.44817 15.4391 9.44811C15.439 9.44784 15.4389 9.44756 16.3333 9.00034C17.2277 8.55313 17.2276 8.5528 17.2274 8.55246C17.2273 8.55231 17.2271 8.55194 17.227 8.55166C17.2267 8.55109 17.2264 8.55043 17.226 8.5497C17.2253 8.54823 17.2244 8.54643 17.2233 8.54431C17.2211 8.54008 17.2183 8.53457 17.2149 8.52782C17.2079 8.51431 17.1983 8.49584 17.1861 8.47273C17.1616 8.42652 17.1266 8.3617 17.0812 8.28091C16.9904 8.11948 16.8575 7.89353 16.6837 7.62448C16.3375 7.08832 15.8223 6.37094 15.1462 5.64973C13.8121 4.22678 11.7328 2.66701 8.99996 2.66701V4.66701ZM15.4514 8.52893C15.0795 9.22462 14.636 9.87958 14.1281 10.4832L15.6584 11.7709C16.256 11.0608 16.7777 10.2902 17.2152 9.47175L15.4514 8.52893ZM9.68168 9.73195C9.43239 9.99949 9.05694 10.1096 8.70263 10.0191L8.20775 11.9569C9.27068 12.2284 10.397 11.898 11.1449 11.0954L9.68168 9.73195ZM8.70263 10.0191C8.34832 9.92865 8.07165 9.65198 7.98117 9.29767L6.04336 9.79255C6.31482 10.8555 7.14481 11.6855 8.20775 11.9569L8.70263 10.0191ZM7.98117 9.29767C7.89068 8.94336 8.00081 8.56791 8.26835 8.31862L6.9049 6.8554C6.10229 7.60328 5.77191 8.72962 6.04336 9.79255L7.98117 9.29767Z" fill="#7B8794"/>
<path d="M1.66663 1.66699L16.3333 16.3337" stroke="#7B8794" stroke-width="2" stroke-linecap="round" stroke-linejoin="round"/>
</svg>
