<svg width="16" height="15" viewBox="0 0 16 15" fill="none" xmlns="http://www.w3.org/2000/svg">
<path d="M6.05992 5.45475C6.21665 5.0092 6.52602 4.63349 6.93322 4.39417C7.34042 4.15486 7.81918 4.06738 8.2847 4.14723C8.75022 4.22708 9.17246 4.4691 9.47664 4.83044C9.78081 5.19177 9.94729 5.6491 9.94659 6.12142C9.94659 7.45475 7.94659 8.12142 7.94659 8.12142M7.99992 10.7881H8.00659M14.6666 7.45475C14.6666 11.1367 11.6818 14.1214 7.99992 14.1214C4.31802 14.1214 1.33325 11.1367 1.33325 7.45475C1.33325 3.77285 4.31802 0.788086 7.99992 0.788086C11.6818 0.788086 14.6666 3.77285 14.6666 7.45475Z" stroke="#98A2B3" stroke-width="1.33333" stroke-linecap="round" stroke-linejoin="round"/>
</svg>
