<svg width="24" height="24" viewBox="0 0 24 24" fill="none" xmlns="http://www.w3.org/2000/svg">
<mask id="mask0_847_55281" style="mask-type:alpha" maskUnits="userSpaceOnUse" x="0" y="0" width="24" height="24">
<rect width="24" height="24" fill="#D9D9D9"/>
</mask>
<g mask="url(#mask0_847_55281)">
<path d="M12 12C12.55 12 13.0208 11.8042 13.4125 11.4125C13.8042 11.0208 14 10.55 14 10C14 9.45 13.8042 8.97917 13.4125 8.5875C13.0208 8.19583 12.55 8 12 8C11.45 8 10.9792 8.19583 10.5875 8.5875C10.1958 8.97917 10 9.45 10 10C10 10.55 10.1958 11.0208 10.5875 11.4125C10.9792 11.8042 11.45 12 12 12ZM12 19.35C14.0333 17.4833 15.5417 15.7875 16.525 14.2625C17.5083 12.7375 18 11.3833 18 10.2C18 8.38333 17.4208 6.89583 16.2625 5.7375C15.1042 4.57917 13.6833 4 12 4C10.3167 4 8.89583 4.57917 7.7375 5.7375C6.57917 6.89583 6 8.38333 6 10.2C6 11.3833 6.49167 12.7375 7.475 14.2625C8.45833 15.7875 9.96667 17.4833 12 19.35ZM12 22C9.31667 19.7167 7.3125 17.5958 5.9875 15.6375C4.6625 13.6792 4 11.8667 4 10.2C4 7.7 4.80417 5.70833 6.4125 4.225C8.02083 2.74167 9.88333 2 12 2C14.1167 2 15.9792 2.74167 17.5875 4.225C19.1958 5.70833 20 7.7 20 10.2C20 11.8667 19.3375 13.6792 18.0125 15.6375C16.6875 17.5958 14.6833 19.7167 12 22Z" fill="#FF0000"/>
<path d="M5.94162 7.11088C6.57929 4.6513 8.66554 2.83822 11.19 2.54971C14.0112 2.22729 16.6857 3.88066 17.6583 6.54844L18.096 7.74901C18.6757 9.33902 18.6124 11.0924 17.9195 12.6365L16.6681 15.4255C16.2295 16.4029 15.5562 17.2567 14.7079 17.911L13.1509 19.1122C12.4246 19.6724 11.4806 19.8664 10.5923 19.638C10.2015 19.5375 9.83526 19.3586 9.51579 19.1122L9.12726 18.8125C8.38854 18.2426 7.81126 17.4899 7.45242 16.6287L5.84023 12.7594C5.29506 11.451 5.19253 10.0002 5.54825 8.62816L5.94162 7.11088Z" fill="#FF0000"/>
</g>
<path d="M13.5 9.87669C13.3633 9.87669 13.25 9.76335 13.25 9.62669V9.16668C13.25 8.81668 13.1 8.47668 12.84 8.24002C12.5767 8.00002 12.2367 7.89002 11.8767 7.92335C11.2767 7.98002 10.75 8.59335 10.75 9.23335V9.55668C10.75 9.69335 10.6367 9.80668 10.5 9.80668C10.3633 9.80668 10.25 9.69335 10.25 9.55668V9.23002C10.25 8.33335 10.9733 7.50668 11.83 7.42335C12.33 7.37668 12.81 7.53335 13.1767 7.87002C13.54 8.20002 13.75 8.67335 13.75 9.16668V9.62669C13.75 9.76335 13.6367 9.87669 13.5 9.87669Z" fill="white"/>
<path d="M12.9999 14.5833H10.9999C9.45994 14.5833 9.17327 13.8666 9.09994 13.17L8.84994 11.1733C8.81327 10.8133 8.79994 10.2966 9.14994 9.90996C9.44994 9.57663 9.94661 9.41663 10.6666 9.41663H13.3333C14.0566 9.41663 14.5533 9.57996 14.8499 9.90996C15.1966 10.2966 15.1866 10.8133 15.1499 11.1666L14.8999 13.17C14.8266 13.8666 14.5399 14.5833 12.9999 14.5833ZM10.6666 9.91663C10.1033 9.91663 9.71661 10.0266 9.51994 10.2466C9.35661 10.4266 9.30327 10.7033 9.34661 11.1166L9.59661 13.1133C9.65327 13.6466 9.79994 14.0866 10.9999 14.0866H12.9999C14.1999 14.0866 14.3466 13.65 14.4033 13.12L14.6533 11.1166C14.6966 10.71 14.6433 10.4333 14.4799 10.25C14.2833 10.0266 13.8966 9.91663 13.3333 9.91663H10.6666Z" fill="white"/>
<path d="M13.1399 11.3833C12.9532 11.3833 12.8032 11.2333 12.8032 11.05C12.8032 10.8667 12.9532 10.7167 13.1366 10.7167C13.3199 10.7167 13.4699 10.8667 13.4699 11.05C13.4699 11.2333 13.3232 11.3833 13.1399 11.3833Z" fill="white"/>
<path d="M10.8069 11.3833C10.6202 11.3833 10.4702 11.2333 10.4702 11.05C10.4702 10.8667 10.6202 10.7167 10.8035 10.7167C10.9869 10.7167 11.1369 10.8667 11.1369 11.05C11.1369 11.2333 10.9902 11.3833 10.8069 11.3833Z" fill="white"/>
</svg>
