<svg width="18" height="23" viewBox="0 0 18 23" fill="none" xmlns="http://www.w3.org/2000/svg">
<path d="M12.1831 1.61489C11.4812 1.22405 10.671 1 9.80286 1H8.09995C5.15552 1 2.87737 3.58064 3.24258 6.50234L3.32194 7.13719C3.46808 8.30631 3.04102 9.4741 2.17514 10.2731C0.99242 11.3645 0.663827 13.1016 1.36619 14.5496L1.46954 14.7627C2.13331 16.1311 3.52054 17 5.04144 17H13.2623C14.5656 17 15.7785 16.3342 16.4783 15.2347C17.4661 13.6826 17.2045 11.6465 15.8564 10.3945L15.8125 10.3538C15.3991 9.96984 15.0805 9.50669 14.8697 9C14.7836 8.79308 14.7154 8.5789 14.6662 8.35988M6.18317 20L6.48317 20.4C7.83317 22.2 10.5332 22.2 11.8832 20.4L12.1832 20" stroke="#6B7280" stroke-width="1.5" stroke-linecap="round"/>
</svg>
