<svg width="24" height="24" viewBox="0 0 24 24" fill="none" xmlns="http://www.w3.org/2000/svg">
<path fill-rule="evenodd" clip-rule="evenodd" d="M12.89 1.45015L20.89 5.45015C21.5697 5.78788 21.9996 6.48121 22 7.24015V16.7702C21.9996 17.5291 21.5697 18.2224 20.89 18.5602L12.89 22.5602C12.3267 22.8421 11.6634 22.8421 11.1 22.5602L3.10005 18.5602C2.42104 18.218 1.99476 17.5205 2.00005 16.7601V7.24015C2.00045 6.48121 2.43039 5.78788 3.11005 5.45015L11.11 1.45015C11.6707 1.17156 12.3294 1.17156 12.89 1.45015Z" stroke="#9CA3AF" stroke-width="2" stroke-linecap="round" stroke-linejoin="round"/>
<path d="M2.32007 6.16016L12.0001 11.0002L21.6801 6.16016" stroke="#9CA3AF" stroke-width="2" stroke-linecap="round" stroke-linejoin="round"/>
<path d="M12 22.76V11" stroke="#9CA3AF" stroke-width="2" stroke-linecap="round" stroke-linejoin="round"/>
<path d="M7 3.5L17 8.5" stroke="#9CA3AF" stroke-width="2" stroke-linecap="round" stroke-linejoin="round"/>
</svg>
