<svg width="20" height="20" viewBox="0 0 20 20" fill="none" xmlns="http://www.w3.org/2000/svg">
<path fill-rule="evenodd" clip-rule="evenodd" d="M10.7417 1.2083L17.4083 4.54163C17.9747 4.82307 18.333 5.40084 18.3333 6.0333V13.975C18.333 14.6074 17.9747 15.1852 17.4083 15.4666L10.7417 18.8C10.2722 19.0349 9.71947 19.0349 9.25 18.8L2.58333 15.4666C2.01749 15.1815 1.66226 14.6002 1.66667 13.9666V6.0333C1.667 5.40084 2.02529 4.82307 2.59167 4.54163L9.25833 1.2083C9.72553 0.976141 10.2745 0.976141 10.7417 1.2083Z" stroke="#7B8794" stroke-width="2" stroke-linecap="round" stroke-linejoin="round"/>
<path d="M1.93333 5.13379L10 9.16712L18.0667 5.13379" stroke="#7B8794" stroke-width="2" stroke-linecap="round" stroke-linejoin="round"/>
<path d="M10 18.967V9.16699" stroke="#7B8794" stroke-width="2" stroke-linecap="round" stroke-linejoin="round"/>
<path d="M5.83333 2.91699L14.1667 7.08366" stroke="#7B8794" stroke-width="2" stroke-linecap="round" stroke-linejoin="round"/>
</svg>
