<svg width="20" height="20" viewBox="0 0 20 20" fill="none" xmlns="http://www.w3.org/2000/svg">
<circle cx="10" cy="10" r="10" fill="#E5E7EB"/>
<path fill-rule="evenodd" clip-rule="evenodd" d="M14.5002 12.46V13.96C14.5014 14.2416 14.3837 14.5106 14.1763 14.701C13.9688 14.8913 13.6906 14.9854 13.4102 14.96C11.8716 14.7929 10.3937 14.2671 9.09521 13.425C7.88713 12.6574 6.86288 11.6331 6.09521 10.425C5.2502 9.12065 4.72434 7.63555 4.56021 6.09005C4.53495 5.81049 4.62835 5.53318 4.8176 5.32586C5.00684 5.11854 5.27451 5.00031 5.55521 5.00005H7.05521C7.55715 4.99511 7.98496 5.36303 8.05521 5.86005C8.11853 6.34008 8.23594 6.81141 8.40521 7.26505C8.54258 7.63049 8.45472 8.04245 8.18021 8.32005L7.54521 8.95505C8.25699 10.2068 9.29344 11.2433 10.5452 11.955L11.1802 11.32C11.4578 11.0455 11.8698 10.9577 12.2352 11.095C12.6889 11.2643 13.1602 11.3817 13.6402 11.445C14.143 11.516 14.5128 11.9524 14.5002 12.46Z" stroke="#6B7280" stroke-width="2" stroke-linecap="round" stroke-linejoin="round"/>
</svg>
