<svg width="69" height="54" viewBox="0 0 69 54" fill="none" xmlns="http://www.w3.org/2000/svg">
<path d="M68.7651 45.2416V53.7345H0.979858V45.2726C4.92256 40.0036 10.0402 35.7272 15.9259 32.7833C21.8116 29.8395 28.3029 28.3095 34.8838 28.315C48.7346 28.315 61.0376 34.9636 68.7651 45.2416ZM46.1757 11.3659C46.1757 14.3622 44.9854 17.2358 42.8667 19.3545C40.748 21.4732 37.8744 22.6634 34.8781 22.6634C31.8818 22.6634 29.0083 21.4732 26.8896 19.3545C24.7709 17.2358 23.5806 14.3622 23.5806 11.3659C23.5806 8.3696 24.7709 5.49603 26.8896 3.37733C29.0083 1.25863 31.8818 0.0683594 34.8781 0.0683594C37.8744 0.0683594 40.748 1.25863 42.8667 3.37733C44.9854 5.49603 46.1757 8.3696 46.1757 11.3659Z" fill="white"/>
</svg>
