<svg width="19" height="18" viewBox="0 0 19 18" fill="none" xmlns="http://www.w3.org/2000/svg">
<path d="M18.05 17.2498C17.9388 17.2514 17.8292 17.2232 17.7325 17.1683C17.6358 17.1134 17.5555 17.0337 17.5 16.9373C16.6676 15.5193 15.4811 14.3417 14.0568 13.52C12.6325 12.6983 11.0192 12.2606 9.37496 12.2498V15.9998C9.37435 16.1232 9.33722 16.2437 9.26826 16.346C9.1993 16.4483 9.1016 16.528 8.98746 16.5748C8.87364 16.6227 8.7482 16.6358 8.62695 16.6124C8.50571 16.5891 8.3941 16.5303 8.30621 16.4436L0.806212 8.94359C0.747632 8.88549 0.701135 8.81637 0.669405 8.7402C0.637674 8.66404 0.621338 8.58235 0.621338 8.49984C0.621338 8.41734 0.637674 8.33565 0.669405 8.25948C0.701135 8.18332 0.747632 8.1142 0.806212 8.05609L8.30621 0.556093C8.3941 0.46937 8.50571 0.410622 8.62695 0.387263C8.7482 0.363904 8.87364 0.376981 8.98746 0.424843C9.1016 0.471731 9.1993 0.551354 9.26826 0.653679C9.33722 0.756005 9.37435 0.876452 9.37496 0.999843V4.81859C11.9607 5.15071 14.3375 6.41169 16.0623 8.36651C17.7872 10.3213 18.7424 12.8366 18.75 15.4436C18.7485 15.8615 18.7213 16.279 18.6687 16.6936C18.6531 16.8236 18.597 16.9455 18.5084 17.0419C18.4199 17.1383 18.3032 17.2045 18.175 17.2311L18.05 17.2498ZM9.06246 10.9998C10.6565 10.977 12.2364 11.3004 13.6932 11.9479C15.15 12.5953 16.4488 13.5513 17.5 14.7498C17.3119 12.4826 16.3222 10.3565 14.7084 8.75295C13.0945 7.14941 10.9621 6.17335 8.69371 5.99984C8.53789 5.98576 8.39301 5.91375 8.2877 5.79803C8.1824 5.68231 8.12433 5.5313 8.12496 5.37484V2.50609L2.13121 8.49984L8.12496 14.4936V11.6248C8.12496 11.4591 8.19081 11.3001 8.30802 11.1829C8.42523 11.0657 8.5842 10.9998 8.74996 10.9998H9.08746H9.06246Z" fill="#374151"/>
</svg>
