<svg width="24" height="24" viewBox="0 0 24 24" fill="none" xmlns="http://www.w3.org/2000/svg">
<path d="M12.0117 9.15449C11.3109 9.15449 10.6547 9.42637 10.1578 9.92324C9.66329 10.4201 9.38907 11.0764 9.38907 11.7771C9.38907 12.4779 9.66329 13.1342 10.1578 13.6311C10.6547 14.1256 11.3109 14.3998 12.0117 14.3998C12.7125 14.3998 13.3688 14.1256 13.8656 13.6311C14.3602 13.1342 14.6344 12.4779 14.6344 11.7771C14.6344 11.0764 14.3602 10.4201 13.8656 9.92324C13.6229 9.67869 13.3341 9.4848 13.0158 9.35283C12.6976 9.22085 12.3563 9.15344 12.0117 9.15449ZM21.675 14.674L20.1422 13.3639C20.2149 12.9186 20.2524 12.4639 20.2524 12.0115C20.2524 11.5592 20.2149 11.1021 20.1422 10.6592L21.675 9.34902C21.7908 9.2499 21.8737 9.11787 21.9126 8.97051C21.9515 8.82314 21.9447 8.66741 21.893 8.52402L21.8719 8.46309C21.45 7.28345 20.818 6.19001 20.0063 5.23574L19.9641 5.18652C19.8655 5.07063 19.7341 4.98732 19.5873 4.94757C19.4404 4.90783 19.285 4.91351 19.1414 4.96387L17.2383 5.64121C16.5352 5.06465 15.7524 4.60996 14.9039 4.29356L14.536 2.30371C14.5082 2.15381 14.4355 2.0159 14.3275 1.90832C14.2195 1.80073 14.0813 1.72855 13.9313 1.70137L13.868 1.68965C12.6492 1.46934 11.3649 1.46934 10.1461 1.68965L10.0828 1.70137C9.93282 1.72855 9.79463 1.80073 9.68662 1.90832C9.57861 2.0159 9.5059 2.15381 9.47814 2.30371L9.10782 4.30293C8.26742 4.62186 7.48453 5.07544 6.78986 5.6459L4.87267 4.96387C4.72915 4.91311 4.57358 4.90722 4.42664 4.94699C4.2797 4.98676 4.14834 5.07031 4.05001 5.18652L4.00782 5.23574C3.19757 6.19103 2.56565 7.2842 2.1422 8.46309L2.12111 8.52402C2.01564 8.81699 2.10236 9.14512 2.33907 9.34902L3.89064 10.6732C3.81798 11.1139 3.78282 11.5639 3.78282 12.0092C3.78282 12.4592 3.81798 12.9092 3.89064 13.3451L2.34376 14.6693C2.22797 14.7685 2.1451 14.9005 2.10616 15.0479C2.06723 15.1952 2.07407 15.351 2.12579 15.4943L2.14689 15.5553C2.57111 16.7342 3.19689 17.824 4.01251 18.7826L4.0547 18.8318C4.15326 18.9477 4.28463 19.031 4.43149 19.0708C4.57834 19.1105 4.73379 19.1049 4.87736 19.0545L6.79454 18.3725C7.49298 18.9467 8.27111 19.4014 9.11251 19.7154L9.48282 21.7147C9.51059 21.8646 9.5833 22.0025 9.69131 22.11C9.79932 22.2176 9.9375 22.2898 10.0875 22.317L10.1508 22.3287C11.3815 22.5502 12.6419 22.5502 13.8727 22.3287L13.9359 22.317C14.086 22.2898 14.2241 22.2176 14.3322 22.11C14.4402 22.0025 14.5129 21.8646 14.5406 21.7147L14.9086 19.7248C15.757 19.4061 16.5399 18.9537 17.243 18.3771L19.1461 19.0545C19.2896 19.1053 19.4452 19.1111 19.5921 19.0714C19.7391 19.0316 19.8704 18.9481 19.9688 18.8318L20.011 18.7826C20.8266 17.8193 21.4524 16.7342 21.8766 15.5553L21.8977 15.4943C21.9984 15.2037 21.9117 14.8779 21.675 14.674ZM12.0117 15.8975C9.73595 15.8975 7.89142 14.0529 7.89142 11.7771C7.89142 9.50137 9.73595 7.65684 12.0117 7.65684C14.2875 7.65684 16.132 9.50137 16.132 11.7771C16.132 14.0529 14.2875 15.8975 12.0117 15.8975Z" fill="#9CA3AF"/>
</svg>
