<svg width="80" height="81" viewBox="0 0 80 81" fill="none" xmlns="http://www.w3.org/2000/svg">
<path fill-rule="evenodd" clip-rule="evenodd" d="M0 40.5C25.4247 40.5 40 25.9247 40 0.5C40 25.9247 54.5753 40.5 80 40.5C54.5753 40.5 40 55.0753 40 80.5C40 55.0753 25.4247 40.5 0 40.5Z" fill="white"/>
<path fill-rule="evenodd" clip-rule="evenodd" d="M0 12.5C7.62742 12.5 12 8.12742 12 0.5C12 8.12742 16.3726 12.5 24 12.5C16.3726 12.5 12 16.8726 12 24.5C12 16.8726 7.62742 12.5 0 12.5Z" fill="#FEC84B"/>
<path fill-rule="evenodd" clip-rule="evenodd" d="M64 24.5C69.0849 24.5 72 21.5849 72 16.5C72 21.5849 74.9151 24.5 80 24.5C74.9151 24.5 72 27.4151 72 32.5C72 27.4151 69.0849 24.5 64 24.5Z" fill="#FEC84B"/>
</svg>
