<svg width="38" height="38" viewBox="0 0 38 38" fill="none" xmlns="http://www.w3.org/2000/svg">
<path d="M0.5 6C0.5 2.96243 2.96243 0.5 6 0.5H37.5V37.5H6C2.96243 37.5 0.5 35.0376 0.5 32V6Z" fill="white"/>
<path fill-rule="evenodd" clip-rule="evenodd" d="M21.7071 14.2929C22.0976 14.6834 22.0976 15.3166 21.7071 15.7071L18.4142 19L21.7071 22.2929C22.0976 22.6834 22.0976 23.3166 21.7071 23.7071C21.3166 24.0976 20.6834 24.0976 20.2929 23.7071L16.2929 19.7071C15.9024 19.3166 15.9024 18.6834 16.2929 18.2929L20.2929 14.2929C20.6834 13.9024 21.3166 13.9024 21.7071 14.2929Z" fill="#6B7280"/>
<path d="M0.5 6C0.5 2.96243 2.96243 0.5 6 0.5H37.5V37.5H6C2.96243 37.5 0.5 35.0376 0.5 32V6Z" stroke="#D1D5DB"/>
</svg>
