<svg width="21" height="20" viewBox="0 0 21 20" fill="none" xmlns="http://www.w3.org/2000/svg">
<path d="M3 5H4.66667H18" stroke="#EF4444" stroke-width="2" stroke-linecap="round" stroke-linejoin="round"/>
<path d="M17.3337 4.99984C17.3337 4.44755 16.8859 3.99984 16.3337 3.99984C15.7814 3.99984 15.3337 4.44755 15.3337 4.99984H17.3337ZM5.66699 4.99984C5.66699 4.44755 5.21928 3.99984 4.66699 3.99984C4.11471 3.99984 3.66699 4.44755 3.66699 4.99984H5.66699ZM6.16699 4.99984C6.16699 5.55212 6.61471 5.99984 7.16699 5.99984C7.71928 5.99984 8.16699 5.55212 8.16699 4.99984H6.16699ZM12.8337 4.99984C12.8337 5.55212 13.2814 5.99984 13.8337 5.99984C14.3859 5.99984 14.8337 5.55212 14.8337 4.99984H12.8337ZM15.3337 4.99984V16.6665H17.3337V4.99984H15.3337ZM15.3337 16.6665C15.3337 17.0347 15.0352 17.3332 14.667 17.3332V19.3332C16.1398 19.3332 17.3337 18.1393 17.3337 16.6665H15.3337ZM14.667 17.3332H6.33366V19.3332H14.667V17.3332ZM6.33366 17.3332C5.96547 17.3332 5.66699 17.0347 5.66699 16.6665H3.66699C3.66699 18.1393 4.8609 19.3332 6.33366 19.3332V17.3332ZM5.66699 16.6665V4.99984H3.66699V16.6665H5.66699ZM8.16699 4.99984V3.33317H6.16699V4.99984H8.16699ZM8.16699 3.33317C8.16699 2.96498 8.46547 2.6665 8.83366 2.6665V0.666504C7.3609 0.666504 6.16699 1.86041 6.16699 3.33317H8.16699ZM8.83366 2.6665H12.167V0.666504H8.83366V2.6665ZM12.167 2.6665C12.5352 2.6665 12.8337 2.96498 12.8337 3.33317H14.8337C14.8337 1.86041 13.6398 0.666504 12.167 0.666504V2.6665ZM12.8337 3.33317V4.99984H14.8337V3.33317H12.8337Z" fill="#EF4444"/>
<path d="M8.83301 9.1665V14.1665" stroke="#EF4444" stroke-width="2" stroke-linecap="round" stroke-linejoin="round"/>
<path d="M12.167 9.1665V14.1665" stroke="#EF4444" stroke-width="2" stroke-linecap="round" stroke-linejoin="round"/>
</svg>
