<svg width="20" height="21" viewBox="0 0 20 21" fill="none" xmlns="http://www.w3.org/2000/svg">
<path fill-rule="evenodd" clip-rule="evenodd" d="M14.7068 10.207C14.8946 10.0195 15 9.76516 15 9.5C15 9.23484 14.8946 8.98053 14.7068 8.793L10.7018 4.793C10.5141 4.60553 10.2595 4.50021 9.99395 4.50021C9.72846 4.50021 9.47383 4.60553 9.28607 4.793L5.28106 8.793C5.09868 8.9816 4.99776 9.2342 5.00004 9.4964C5.00232 9.7586 5.10762 10.0094 5.29326 10.1948C5.4789 10.3802 5.73003 10.4854 5.99255 10.4877C6.25508 10.49 6.50799 10.3892 6.69683 10.207L8.9927 7.914V15.5C8.9927 15.7652 9.09819 16.0196 9.28596 16.2071C9.47373 16.3946 9.72841 16.5 9.99395 16.5C10.2595 16.5 10.5142 16.3946 10.7019 16.2071C10.8897 16.0196 10.9952 15.7652 10.9952 15.5V7.914L13.2911 10.207C13.4788 10.3945 13.7335 10.4998 13.999 10.4998C14.2645 10.4998 14.5191 10.3945 14.7068 10.207Z" fill="#EF4444"/>
</svg>
