<svg width="24" height="24" viewBox="0 0 24 24" fill="none" xmlns="http://www.w3.org/2000/svg">
<path opacity="0.2" d="M20.85 13.6453C20.7646 14.1056 20.6436 14.5585 20.4881 15H15.5194C15.3665 14.9998 15.2173 15.0463 15.0917 15.1333C14.966 15.2203 14.8699 15.3435 14.8162 15.4866L12.7631 20.9682C12.5109 20.9888 12.2559 21 11.999 21C11.7422 21 11.4834 20.9888 11.2303 20.9672L9.18186 15.4875C9.12839 15.3444 9.0325 15.2211 8.90702 15.134C8.78153 15.0468 8.63243 15.0001 8.47967 15H3.51092C3.35547 14.5585 3.23448 14.1056 3.14905 13.6453C4.27329 12.4176 5.64068 11.4373 7.16428 10.7666C8.68788 10.0959 10.3344 9.74951 11.999 9.74951C13.6637 9.74951 15.3102 10.0959 16.8338 10.7666C18.3574 11.4373 19.7248 12.4176 20.849 13.6453H20.85Z" fill="#9CA3AF"/>
<path d="M12 14.25C11.7775 14.25 11.56 14.184 11.375 14.0604C11.19 13.9368 11.0458 13.7611 10.9606 13.5555C10.8755 13.35 10.8532 13.1238 10.8966 12.9055C10.94 12.6873 11.0472 12.4868 11.2045 12.3295C11.3618 12.1722 11.5623 12.065 11.7805 12.0216C11.9988 11.9782 12.225 12.0005 12.4305 12.0856C12.6361 12.1708 12.8118 12.315 12.9354 12.5C13.059 12.685 13.125 12.9025 13.125 13.125C13.125 13.4234 13.0065 13.7095 12.7955 13.9205C12.5845 14.1315 12.2984 14.25 12 14.25ZM21.75 12C21.75 13.9284 21.1782 15.8134 20.1068 17.4168C19.0355 19.0202 17.5127 20.2699 15.7312 21.0078C13.9496 21.7458 11.9892 21.9389 10.0979 21.5627C8.20656 21.1865 6.46928 20.2579 5.10571 18.8943C3.74215 17.5307 2.81355 15.7934 2.43735 13.9021C2.06114 12.0108 2.25422 10.0504 2.99218 8.26884C3.73013 6.48726 4.97982 4.96451 6.58319 3.89317C8.18657 2.82183 10.0716 2.25 12 2.25C14.585 2.25273 17.0634 3.28084 18.8913 5.10872C20.7192 6.93661 21.7473 9.41498 21.75 12ZM3.75 12V12.0309C6.05356 10.0742 8.97759 9 12 9C15.0224 9 17.9464 10.0742 20.25 12.0309V12C20.25 9.81196 19.3808 7.71354 17.8336 6.16637C16.2865 4.61919 14.188 3.75 12 3.75C9.81197 3.75 7.71355 4.61919 6.16637 6.16637C4.6192 7.71354 3.75 9.81196 3.75 12ZM10.0781 20.0231L8.47969 15.75H4.65282C5.19644 16.8107 5.96257 17.7415 6.89888 18.479C7.83519 19.2164 8.91962 19.7431 10.0781 20.0231ZM12 20.25H12.2334L14.115 15.2278C14.223 14.942 14.4153 14.6958 14.6665 14.5218C14.9176 14.3479 15.2157 14.2544 15.5213 14.2537H19.9388C19.9744 14.1309 20.0063 14.0062 20.0325 13.8787C18.9851 12.8101 17.735 11.9611 16.3554 11.3816C14.9758 10.802 13.4945 10.5035 11.9981 10.5035C10.5018 10.5035 9.02042 10.802 7.64085 11.3816C6.26127 11.9611 5.01118 12.8101 3.96375 13.8787C3.99282 14.0044 4.02469 14.1291 4.0575 14.2537H8.47969C8.78529 14.2546 9.08342 14.3483 9.33456 14.5224C9.5857 14.6965 9.77799 14.9429 9.88594 15.2288L11.7609 20.25H12ZM19.3472 15.75H15.5203L13.9181 20.0241C15.0774 19.7445 16.1627 19.2179 17.0997 18.4803C18.0367 17.7426 18.8033 16.8113 19.3472 15.75Z" fill="#9CA3AF"/>
</svg>
