<svg width="20" height="20" viewBox="0 0 20 20" fill="none" xmlns="http://www.w3.org/2000/svg">
<path d="M10 12.25C9.7775 12.25 9.55999 12.184 9.37499 12.0604C9.18998 11.9368 9.04579 11.7611 8.96064 11.5555C8.87549 11.35 8.85321 11.1238 8.89662 10.9055C8.94003 10.6873 9.04717 10.4868 9.20451 10.3295C9.36184 10.1722 9.5623 10.065 9.78053 10.0216C9.99876 9.97821 10.225 10.0005 10.4305 10.0856C10.6361 10.1708 10.8118 10.315 10.9354 10.5C11.059 10.685 11.125 10.9025 11.125 11.125C11.125 11.4234 11.0065 11.7095 10.7955 11.9205C10.5845 12.1315 10.2984 12.25 10 12.25ZM19.75 10C19.75 11.9284 19.1782 13.8134 18.1068 15.4168C17.0355 17.0202 15.5127 18.2699 13.7312 19.0078C11.9496 19.7458 9.98919 19.9389 8.09787 19.5627C6.20656 19.1865 4.46928 18.2579 3.10571 16.8943C1.74215 15.5307 0.813554 13.7934 0.437348 11.9021C0.061142 10.0108 0.254225 8.05042 0.992179 6.26884C1.73013 4.48726 2.97982 2.96452 4.58319 1.89317C6.18657 0.821828 8.07164 0.25 10 0.25C12.585 0.25273 15.0634 1.28084 16.8913 3.10872C18.7192 4.93661 19.7473 7.41498 19.75 10ZM1.75 10V10.0309C4.05356 8.07425 6.97759 7 10 7C13.0224 7 15.9464 8.07425 18.25 10.0309V10C18.25 7.81196 17.3808 5.71354 15.8336 4.16637C14.2865 2.61919 12.188 1.75 10 1.75C7.81197 1.75 5.71355 2.61919 4.16637 4.16637C2.6192 5.71354 1.75 7.81196 1.75 10ZM8.07813 18.0231L6.47969 13.75H2.65282C3.19644 14.8107 3.96257 15.7415 4.89888 16.479C5.83519 17.2164 6.91962 17.7431 8.07813 18.0231ZM10 18.25H10.2334L12.115 13.2278C12.223 12.942 12.4153 12.6958 12.6665 12.5218C12.9176 12.3479 13.2157 12.2544 13.5213 12.2537H17.9388C17.9744 12.1309 18.0063 12.0062 18.0325 11.8787C16.9851 10.8101 15.735 9.96113 14.3554 9.38156C12.9758 8.802 11.4945 8.50348 9.99813 8.50348C8.50176 8.50348 7.02042 8.802 5.64085 9.38156C4.26127 9.96113 3.01118 10.8101 1.96375 11.8787C1.99282 12.0044 2.02469 12.1291 2.0575 12.2537H6.47969C6.78529 12.2546 7.08342 12.3483 7.33456 12.5224C7.58571 12.6965 7.77799 12.9429 7.88594 13.2288L9.76094 18.25H10ZM17.3472 13.75H13.5203L11.9181 18.0241C13.0774 17.7445 14.1627 17.2179 15.0997 16.4803C16.0367 15.7426 16.8033 14.8113 17.3472 13.75Z" fill="#00AF52"/>
</svg>
