<svg width="25" height="24" viewBox="0 0 25 24" fill="none" xmlns="http://www.w3.org/2000/svg">
<path opacity="0.4" d="M12.5 22C18.0228 22 22.5 17.5228 22.5 12C22.5 6.47715 18.0228 2 12.5 2C6.97715 2 2.5 6.47715 2.5 12C2.5 17.5228 6.97715 22 12.5 22Z" fill="#2563EB"/>
<path d="M11.24 16.2802C11.05 16.2802 10.86 16.2102 10.71 16.0602C10.42 15.7702 10.42 15.2902 10.71 15.0002L13.71 12.0002L10.71 9.00016C10.42 8.71016 10.42 8.23016 10.71 7.94016C11 7.65016 11.48 7.65016 11.77 7.94016L15.3 11.4702C15.59 11.7602 15.59 12.2402 15.3 12.5302L11.77 16.0602C11.62 16.2102 11.43 16.2802 11.24 16.2802Z" fill="#2563EB"/>
</svg>
