<svg width="158" height="25" viewBox="0 0 158 25" fill="none" xmlns="http://www.w3.org/2000/svg">
<path d="M28.876 18.3874L30.0388 22.4203C30.0393 22.4225 30.0394 22.4247 30.039 22.427C30.0386 22.4292 30.0378 22.4313 30.0365 22.4331C30.0352 22.435 30.0335 22.4365 30.0316 22.4376C30.0296 22.4388 30.0274 22.4395 30.0252 22.4397H21.2074C21.2038 22.4397 21.2003 22.4382 21.1978 22.4357C21.1952 22.4332 21.1938 22.4297 21.1938 22.4261V18.4009C21.1938 18.3973 21.1952 18.3939 21.1978 18.3913C21.2003 18.3888 21.2038 18.3874 21.2074 18.3874H23.9012C23.9806 18.387 24.0589 18.3684 24.1299 18.3328C24.2009 18.2972 24.2628 18.2457 24.3106 18.1823C24.3585 18.1189 24.391 18.0453 24.4057 17.9672C24.4204 17.8892 24.4168 17.8088 24.3953 17.7323L24.2015 17.087L23.9593 16.2401L23.9089 16.0676L23.8256 16.0792L22.7093 16.2401L18.6996 16.8215C18.5384 16.8441 18.3902 16.9224 18.2807 17.0429C18.1711 17.1633 18.1072 17.3182 18.0998 17.4808C18.0924 17.6434 18.1422 17.8035 18.2404 17.9333C18.3386 18.0631 18.4791 18.1545 18.6376 18.1916C18.7888 18.2265 18.9399 18.2575 19.093 18.2846C19.0966 18.2846 19.1001 18.2861 19.1026 18.2886C19.1052 18.2912 19.1066 18.2946 19.1066 18.2982V22.428C19.1066 22.4322 19.105 22.4361 19.102 22.439C19.0991 22.4419 19.0952 22.4436 19.0911 22.4436C18.2209 22.4426 17.3568 22.2992 16.5329 22.0191H8.70349C8.57962 22.0191 8.46082 21.9699 8.37323 21.8823C8.28564 21.7947 8.23643 21.676 8.23643 21.5521C8.23694 21.4284 8.28631 21.3099 8.37379 21.2224C8.46127 21.1349 8.57977 21.0855 8.70349 21.085H14.655C14.2887 20.8401 13.9438 20.5645 13.624 20.2614H7.0562C6.93233 20.2614 6.81353 20.2122 6.72594 20.1246C6.63835 20.037 6.58915 19.9182 6.58915 19.7943C6.58915 19.6705 6.63835 19.5517 6.72594 19.4641C6.81353 19.3765 6.93233 19.3273 7.0562 19.3273H12.7907C12.5604 19.0307 12.3518 18.7179 12.1667 18.3912C12.0581 18.1974 11.9574 18.0036 11.8663 17.8098C11.7159 17.4911 11.5864 17.1629 11.4787 16.8273L11.4244 16.6335L11.3101 16.2459H6.78295C6.72096 16.2469 6.65939 16.2356 6.60183 16.2126C6.54427 16.1896 6.49186 16.1553 6.44767 16.1119C6.40347 16.0684 6.36837 16.0165 6.34442 15.9594C6.32046 15.9022 6.30813 15.8408 6.30814 15.7788C6.30762 15.7164 6.31956 15.6545 6.34326 15.5968C6.36696 15.5391 6.40195 15.4866 6.44617 15.4426C6.49039 15.3986 6.54295 15.3638 6.60078 15.3403C6.65861 15.3169 6.72054 15.3052 6.78295 15.306H11.0465L10.8178 14.5114H5.01744C4.89357 14.5114 4.77477 14.4622 4.68718 14.3746C4.59959 14.287 4.55039 14.1682 4.55039 14.0443C4.55039 13.9205 4.59959 13.8017 4.68718 13.7141C4.77477 13.6265 4.89357 13.5773 5.01744 13.5773H10.5426L10.0329 11.7982C10.0309 11.7958 10.0298 11.7927 10.0298 11.7895C10.0298 11.7863 10.0309 11.7832 10.0329 11.7808L11.7771 11.2498L13.5213 10.7168L13.8953 10.6025C13.8992 10.6012 13.9034 10.6016 13.907 10.6034C13.9106 10.6052 13.9134 10.6083 13.9147 10.6122L14.6899 13.2749C14.6908 13.2784 14.6928 13.2814 14.6956 13.2835C14.6985 13.2856 14.7019 13.2867 14.7054 13.2866L24.5988 11.8583C24.6016 11.8574 24.6041 11.856 24.6061 11.8539C24.6081 11.8519 24.6096 11.8494 24.6105 11.8467L25.2054 9.27301L25.2461 9.09665H11.5911C10.7216 9.09765 9.86212 8.91055 9.0717 8.5482H2.59884C2.47497 8.5482 2.35617 8.499 2.26858 8.41141C2.18099 8.32382 2.13178 8.20502 2.13178 8.08115C2.13178 7.95728 2.18099 7.83848 2.26858 7.75089C2.35617 7.6633 2.47497 7.61409 2.59884 7.61409H7.6376C7.32129 7.34372 7.03478 7.04032 6.78295 6.70906H0.467054C0.343184 6.70906 0.224387 6.65985 0.136797 6.57226C0.0492074 6.48467 0 6.36587 0 6.242C0 6.11813 0.0492074 5.99933 0.136797 5.91174C0.224387 5.82415 0.343184 5.77495 0.467054 5.77495H6.20155C6.10303 5.57888 6.01505 5.37769 5.93798 5.17223H2.9593C2.83543 5.17223 2.71663 5.12303 2.62904 5.03544C2.54146 4.94785 2.49225 4.82905 2.49225 4.70518C2.49225 4.58131 2.54146 4.46251 2.62904 4.37492C2.71663 4.28733 2.83543 4.23812 2.9593 4.23812H5.67248C5.65116 4.13735 5.63372 4.04433 5.62015 3.93386C5.60905 3.85661 5.61467 3.77788 5.63665 3.703C5.65862 3.62811 5.69644 3.55882 5.74753 3.49983C5.79862 3.44084 5.86179 3.39351 5.93277 3.36107C6.00375 3.32862 6.08087 3.31181 6.15891 3.31177H9.96124C9.9632 3.31175 9.96513 3.31215 9.96692 3.31295C9.96871 3.31375 9.9703 3.31493 9.97159 3.3164C9.97288 3.31787 9.97383 3.31961 9.97439 3.32148C9.97494 3.32336 9.97509 3.32534 9.97481 3.32727C9.96137 3.5205 9.98775 3.71443 10.0523 3.89704C10.1768 4.23776 10.4044 4.53119 10.7035 4.73648C11.0026 4.94177 11.3582 5.0487 11.7209 5.04239H28.5814C28.8045 5.04318 29.0245 5.0943 29.2251 5.19195C29.4257 5.2896 29.6016 5.43125 29.7398 5.60636C29.8781 5.78146 29.975 5.9855 30.0234 6.20327C30.0718 6.42104 30.0704 6.64693 30.0194 6.86409L29.5039 9.10247L28.1337 15.0366C28.0697 15.315 28.0777 15.6051 28.157 15.8796L28.876 18.3874Z" fill="#32499D"/>
<path d="M19.1028 23.3369C19.1028 23.7178 18.9515 24.083 18.6822 24.3524C18.4129 24.6217 18.0476 24.773 17.6668 24.773C17.2859 24.773 16.9206 24.6217 16.6513 24.3524C16.382 24.083 16.2307 23.7178 16.2307 23.3369H19.1028Z" fill="#32499D"/>
<path d="M27.19 23.3369C27.1763 23.7084 27.0192 24.0601 26.7515 24.3181C26.4839 24.5761 26.1266 24.7202 25.7549 24.7202C25.3832 24.7202 25.0259 24.5761 24.7583 24.3181C24.4906 24.0601 24.3335 23.7084 24.3198 23.3369H27.19Z" fill="#32499D"/>
<path d="M32.076 20V5.01057H37.9898C39.1218 5.01057 40.0879 5.21306 40.8881 5.61805C41.6932 6.01816 42.3056 6.58661 42.7252 7.32339C43.1497 8.0553 43.362 8.91651 43.362 9.90702C43.362 10.9024 43.1473 11.7587 42.7179 12.476C42.2885 13.1884 41.6664 13.7349 40.8515 14.1155C40.0416 14.4961 39.0608 14.6864 37.9093 14.6864H33.9497V12.1393H37.3969C38.002 12.1393 38.5046 12.0564 38.9047 11.8905C39.3048 11.7246 39.6024 11.4757 39.7976 11.1439C39.9976 10.8121 40.0977 10.3998 40.0977 9.90702C40.0977 9.40932 39.9976 8.9897 39.7976 8.64814C39.6024 8.30658 39.3023 8.04798 38.8973 7.87232C38.4972 7.69178 37.9922 7.60152 37.3823 7.60152H35.2451V20H32.076ZM40.1709 13.1786L43.8963 20H40.3978L36.7529 13.1786H40.1709ZM50.4852 20.2196C49.3288 20.2196 48.3334 19.9854 47.4991 19.5169C46.6696 19.0436 46.0304 18.3752 45.5815 17.5115C45.1326 16.643 44.9081 15.6159 44.9081 14.4302C44.9081 13.2738 45.1326 12.2589 45.5815 11.3855C46.0304 10.5121 46.6623 9.83139 47.4771 9.34345C48.2968 8.85551 49.2581 8.61155 50.3608 8.61155C51.1025 8.61155 51.7929 8.73109 52.4321 8.97018C53.0762 9.20439 53.6373 9.55814 54.1155 10.0314C54.5986 10.5047 54.9743 11.1 55.2426 11.8173C55.511 12.5297 55.6452 13.3641 55.6452 14.3204V15.1767H46.1524V13.2445H52.7102C52.7102 12.7956 52.6127 12.3979 52.4175 12.0515C52.2223 11.7051 51.9515 11.4343 51.6051 11.2391C51.2635 11.039 50.8658 10.939 50.4121 10.939C49.9388 10.939 49.5191 11.0488 49.1532 11.2684C48.7921 11.4831 48.5091 11.7734 48.3042 12.1393C48.0992 12.5004 47.9943 12.903 47.9894 13.347V15.1841C47.9894 15.7403 48.0919 16.2209 48.2968 16.6259C48.5067 17.0309 48.8019 17.3432 49.1825 17.5628C49.563 17.7823 50.0144 17.8921 50.5365 17.8921C50.8829 17.8921 51.2001 17.8433 51.488 17.7457C51.7758 17.6481 52.0222 17.5018 52.2272 17.3066C52.4321 17.1114 52.5883 16.8723 52.6956 16.5893L55.5793 16.7796C55.4329 17.4725 55.1328 18.0775 54.6791 18.5947C54.2302 19.1071 53.6495 19.5072 52.9371 19.7951C52.2296 20.0781 51.4123 20.2196 50.4852 20.2196ZM63.6596 8.75793V11.1H56.8894V8.75793H63.6596ZM58.4264 6.06451H61.5443V16.5454C61.5443 16.8333 61.5883 17.0577 61.6761 17.2188C61.7639 17.3749 61.8859 17.4847 62.042 17.5481C62.2031 17.6115 62.3885 17.6433 62.5983 17.6433C62.7447 17.6433 62.8911 17.6311 63.0374 17.6067C63.1838 17.5774 63.296 17.5554 63.3741 17.5408L63.8645 19.8609C63.7083 19.9097 63.4888 19.9658 63.2058 20.0293C62.9228 20.0976 62.5788 20.1391 62.1738 20.1537C61.4224 20.183 60.7636 20.0829 60.1976 19.8536C59.6365 19.6243 59.1998 19.2681 58.8875 18.785C58.5752 18.302 58.4215 17.6921 58.4264 16.9553V6.06451ZM68.8963 20.2123C68.1791 20.2123 67.5399 20.0878 66.9787 19.839C66.4176 19.5853 65.9736 19.212 65.6467 18.7192C65.3246 18.2215 65.1636 17.6018 65.1636 16.8601C65.1636 16.2356 65.2783 15.711 65.5076 15.2865C65.7369 14.862 66.0492 14.5205 66.4445 14.2619C66.8397 14.0033 67.2886 13.8081 67.7912 13.6763C68.2986 13.5446 68.8305 13.4519 69.3867 13.3982C70.0406 13.3299 70.5675 13.2665 70.9676 13.2079C71.3677 13.1445 71.6581 13.0518 71.8386 12.9298C72.0191 12.8078 72.1094 12.6273 72.1094 12.3882V12.3443C72.1094 11.8807 71.963 11.5221 71.6703 11.2684C71.3824 11.0146 70.9725 10.8878 70.4407 10.8878C69.8795 10.8878 69.4331 11.0122 69.1013 11.261C68.7695 11.505 68.5499 11.8124 68.4426 12.1832L65.5588 11.949C65.7052 11.2659 65.9931 10.6755 66.4225 10.1778C66.8519 9.67525 67.4057 9.28978 68.0839 9.02141C68.767 8.74817 69.5575 8.61155 70.4553 8.61155C71.0799 8.61155 71.6776 8.68474 72.2485 8.83112C72.8242 8.9775 73.3341 9.20439 73.7781 9.51179C74.2271 9.81919 74.5808 10.2144 74.8394 10.6975C75.098 11.1757 75.2273 11.749 75.2273 12.4175V20H72.2704V18.441H72.1826C72.0021 18.7924 71.7605 19.1022 71.458 19.3706C71.1555 19.634 70.792 19.8414 70.3675 19.9927C69.943 20.1391 69.4526 20.2123 68.8963 20.2123ZM69.7893 18.0604C70.2479 18.0604 70.6529 17.9702 71.0042 17.7896C71.3555 17.6042 71.6312 17.3554 71.8313 17.0431C72.0313 16.7308 72.1314 16.3771 72.1314 15.9818V14.7888C72.0338 14.8523 71.8996 14.9108 71.7288 14.9645C71.5629 15.0133 71.3751 15.0596 71.1652 15.1035C70.9554 15.1426 70.7456 15.1792 70.5358 15.2133C70.326 15.2426 70.1357 15.2694 69.9649 15.2938C69.599 15.3475 69.2794 15.4329 69.0061 15.55C68.7329 15.6671 68.5206 15.8257 68.3694 16.0258C68.2181 16.2209 68.1425 16.4649 68.1425 16.7577C68.1425 17.1822 68.2962 17.5066 68.6036 17.7311C68.9159 17.9507 69.3111 18.0604 69.7893 18.0604ZM77.6463 20V8.75793H80.7642V20H77.6463ZM79.2125 7.30875C78.749 7.30875 78.3513 7.15505 78.0195 6.84765C77.6926 6.53537 77.5292 6.1621 77.5292 5.72784C77.5292 5.29845 77.6926 4.93006 78.0195 4.62266C78.3513 4.31038 78.749 4.15424 79.2125 4.15424C79.6761 4.15424 80.0713 4.31038 80.3982 4.62266C80.73 4.93006 80.8959 5.29845 80.8959 5.72784C80.8959 6.1621 80.73 6.53537 80.3982 6.84765C80.0713 7.15505 79.6761 7.30875 79.2125 7.30875ZM86.3797 5.01057V20H83.2618V5.01057H86.3797Z" fill="#32499D"/>
<path d="M90.9643 5.01057L93.987 10.1193H94.1041L97.1416 5.01057H100.721L96.1462 12.5053L100.823 20H97.1782L94.1041 14.884H93.987L90.913 20H87.2828L91.9743 12.5053L87.3706 5.01057H90.9643ZM102.667 24.2158V8.75793H105.741V10.6462H105.881C106.017 10.3437 106.215 10.0363 106.473 9.72404C106.737 9.40688 107.078 9.1434 107.498 8.93358C107.923 8.71889 108.45 8.61155 109.079 8.61155C109.899 8.61155 110.655 8.82624 111.348 9.25562C112.041 9.68013 112.595 10.3218 113.009 11.1805C113.424 12.0344 113.631 13.1054 113.631 14.3936C113.631 15.6476 113.429 16.7064 113.024 17.5701C112.624 18.4288 112.077 19.0802 111.384 19.5243C110.696 19.9634 109.926 20.183 109.072 20.183C108.467 20.183 107.952 20.0829 107.527 19.8829C107.108 19.6828 106.764 19.4316 106.495 19.129C106.227 18.8216 106.022 18.5118 105.881 18.1995H105.785V24.2158H102.667ZM105.719 14.379C105.719 15.0474 105.812 15.6305 105.998 16.1282C106.183 16.6259 106.451 17.0138 106.803 17.2919C107.154 17.5652 107.581 17.7018 108.084 17.7018C108.591 17.7018 109.02 17.5628 109.372 17.2846C109.723 17.0016 109.989 16.6113 110.169 16.1136C110.355 15.611 110.448 15.0328 110.448 14.379C110.448 13.73 110.357 13.1591 110.177 12.6663C109.996 12.1735 109.73 11.788 109.379 11.5099C109.028 11.2318 108.596 11.0927 108.084 11.0927C107.576 11.0927 107.147 11.2269 106.795 11.4953C106.449 11.7636 106.183 12.1442 105.998 12.637C105.812 13.1298 105.719 13.7105 105.719 14.379ZM115.71 20V8.75793H118.733V10.7194H118.85C119.055 10.0217 119.399 9.49471 119.882 9.13852C120.365 8.77744 120.921 8.59691 121.551 8.59691C121.707 8.59691 121.875 8.60667 122.056 8.62618C122.236 8.6457 122.395 8.67254 122.531 8.70669V11.4733C122.385 11.4294 122.182 11.3903 121.924 11.3562C121.665 11.322 121.429 11.305 121.214 11.305C120.755 11.305 120.345 11.405 119.984 11.605C119.628 11.8002 119.345 12.0735 119.135 12.4248C118.93 12.7761 118.828 13.1811 118.828 13.6397V20H115.71ZM128.743 20.2196C127.587 20.2196 126.592 19.9854 125.757 19.5169C124.928 19.0436 124.289 18.3752 123.84 17.5115C123.391 16.643 123.166 15.6159 123.166 14.4302C123.166 13.2738 123.391 12.2589 123.84 11.3855C124.289 10.5121 124.92 9.83139 125.735 9.34345C126.555 8.85551 127.516 8.61155 128.619 8.61155C129.361 8.61155 130.051 8.73109 130.69 8.97018C131.334 9.20439 131.895 9.55814 132.374 10.0314C132.857 10.5047 133.232 11.1 133.501 11.8173C133.769 12.5297 133.903 13.3641 133.903 14.3204V15.1767H124.411V13.2445H130.968C130.968 12.7956 130.871 12.3979 130.676 12.0515C130.48 11.7051 130.21 11.4343 129.863 11.2391C129.522 11.039 129.124 10.939 128.67 10.939C128.197 10.939 127.777 11.0488 127.411 11.2684C127.05 11.4831 126.767 11.7734 126.562 12.1393C126.357 12.5004 126.253 12.903 126.248 13.347V15.1841C126.248 15.7403 126.35 16.2209 126.555 16.6259C126.765 17.0309 127.06 17.3432 127.441 17.5628C127.821 17.7823 128.273 17.8921 128.795 17.8921C129.141 17.8921 129.458 17.8433 129.746 17.7457C130.034 17.6481 130.28 17.5018 130.485 17.3066C130.69 17.1114 130.846 16.8723 130.954 16.5893L133.837 16.7796C133.691 17.4725 133.391 18.0775 132.937 18.5947C132.488 19.1071 131.908 19.5072 131.195 19.7951C130.488 20.0781 129.671 20.2196 128.743 20.2196ZM145.292 11.9637L142.437 12.1393C142.389 11.8954 142.284 11.6758 142.123 11.4806C141.962 11.2806 141.749 11.122 141.486 11.0049C141.227 10.8829 140.917 10.8219 140.556 10.8219C140.073 10.8219 139.666 10.9244 139.334 11.1293C139.002 11.3294 138.836 11.5977 138.836 11.9344C138.836 12.2028 138.944 12.4297 139.158 12.6151C139.373 12.8005 139.742 12.9493 140.264 13.0615L142.298 13.4714C143.391 13.6959 144.206 14.0569 144.743 14.5546C145.28 15.0523 145.548 15.7062 145.548 16.5161C145.548 17.2529 145.331 17.8994 144.897 18.4557C144.467 19.0119 143.877 19.4462 143.125 19.7585C142.379 20.0659 141.518 20.2196 140.542 20.2196C139.054 20.2196 137.868 19.9097 136.985 19.2901C136.106 18.6655 135.592 17.8165 135.44 16.743L138.507 16.582C138.6 17.0358 138.824 17.3822 139.18 17.6213C139.537 17.8555 139.993 17.9726 140.549 17.9726C141.096 17.9726 141.535 17.8677 141.866 17.6579C142.203 17.4432 142.374 17.1675 142.379 16.8308C142.374 16.5478 142.254 16.3161 142.02 16.1355C141.786 15.9501 141.425 15.8086 140.937 15.711L138.99 15.3231C137.892 15.1035 137.075 14.723 136.538 14.1813C136.006 13.6397 135.74 12.9493 135.74 12.1101C135.74 11.3879 135.936 10.7658 136.326 10.2437C136.721 9.7216 137.275 9.31905 137.987 9.03605C138.705 8.75305 139.544 8.61155 140.505 8.61155C141.925 8.61155 143.042 8.91163 143.857 9.51179C144.677 10.112 145.155 10.9292 145.292 11.9637ZM156.865 11.9637L154.011 12.1393C153.962 11.8954 153.857 11.6758 153.696 11.4806C153.535 11.2806 153.323 11.122 153.059 11.0049C152.801 10.8829 152.491 10.8219 152.13 10.8219C151.647 10.8219 151.239 10.9244 150.907 11.1293C150.576 11.3294 150.41 11.5977 150.41 11.9344C150.41 12.2028 150.517 12.4297 150.732 12.6151C150.946 12.8005 151.315 12.9493 151.837 13.0615L153.872 13.4714C154.965 13.6959 155.779 14.0569 156.316 14.5546C156.853 15.0523 157.121 15.7062 157.121 16.5161C157.121 17.2529 156.904 17.8994 156.47 18.4557C156.04 19.0119 155.45 19.4462 154.699 19.7585C153.952 20.0659 153.091 20.2196 152.115 20.2196C150.627 20.2196 149.441 19.9097 148.558 19.2901C147.68 18.6655 147.165 17.8165 147.014 16.743L150.08 16.582C150.173 17.0358 150.397 17.3822 150.754 17.6213C151.11 17.8555 151.566 17.9726 152.122 17.9726C152.669 17.9726 153.108 17.8677 153.44 17.6579C153.776 17.4432 153.947 17.1675 153.952 16.8308C153.947 16.5478 153.828 16.3161 153.593 16.1355C153.359 15.9501 152.998 15.8086 152.51 15.711L150.563 15.3231C149.466 15.1035 148.648 14.723 148.111 14.1813C147.58 13.6397 147.314 12.9493 147.314 12.1101C147.314 11.3879 147.509 10.7658 147.899 10.2437C148.294 9.7216 148.848 9.31905 149.561 9.03605C150.278 8.75305 151.117 8.61155 152.078 8.61155C153.498 8.61155 154.616 8.91163 155.431 9.51179C156.25 10.112 156.728 10.9292 156.865 11.9637Z" fill="#32499D"/>
<path d="M24.0562 16.2404H22.8062L23.9224 16.0795L24.0058 16.0679L24.0562 16.2404Z" fill="#32499D"/>
<path d="M5.95524 5.19354H3.07345C2.94804 5.19354 2.82777 5.14372 2.73909 5.05504C2.65041 4.96636 2.60059 4.84608 2.60059 4.72067C2.60059 4.59526 2.65041 4.47498 2.73909 4.3863C2.82777 4.29762 2.94804 4.2478 3.07345 4.2478H5.68586C5.73965 4.52202 5.81283 4.79208 5.90485 5.05594C5.92035 5.10245 5.9378 5.14897 5.95524 5.19354Z" fill="#32499D"/>
<path d="M6.82559 6.75946H0.536833C0.411421 6.75946 0.291145 6.70964 0.202465 6.62096C0.113785 6.53228 0.0639648 6.412 0.0639648 6.28659C0.0639648 6.16118 0.113785 6.0409 0.202465 5.95222C0.291145 5.86354 0.411421 5.81372 0.536833 5.81372H6.22869C6.39652 6.14758 6.59643 6.46431 6.82559 6.75946Z" fill="#32499D"/>
<path d="M9.10842 8.57391H2.67819C2.55294 8.5734 2.43296 8.52342 2.34439 8.43485C2.25582 8.34628 2.20583 8.2263 2.20532 8.10104C2.20532 7.97563 2.25514 7.85535 2.34382 7.76667C2.4325 7.67799 2.55278 7.62817 2.67819 7.62817H7.64331C8.08283 8.01333 8.57645 8.33197 9.10842 8.57391Z" fill="#32499D"/>
<path d="M10.8102 14.4941H5.14157C5.01616 14.4941 4.89588 14.4443 4.8072 14.3556C4.71852 14.2669 4.6687 14.1466 4.6687 14.0212C4.6687 13.8958 4.71852 13.7755 4.8072 13.6868C4.89588 13.5982 5.01616 13.5483 5.14157 13.5483H10.5389L10.6358 13.8855L10.8102 14.4941Z" fill="#32499D"/>
<path d="M11.3179 16.2538H6.8818C6.75639 16.2538 6.63612 16.204 6.54744 16.1153C6.45876 16.0267 6.40894 15.9064 6.40894 15.781C6.40894 15.6556 6.45876 15.5353 6.54744 15.4466C6.63612 15.3579 6.75639 15.3081 6.8818 15.3081H11.0465L11.3179 16.2538Z" fill="#32499D"/>
<path d="M13.6531 20.291H7.12985C7.00444 20.291 6.88416 20.2411 6.79548 20.1525C6.7068 20.0638 6.65698 19.9435 6.65698 19.8181C6.65698 19.6927 6.7068 19.5724 6.79548 19.4837C6.88416 19.395 7.00444 19.3452 7.12985 19.3452H12.7907C13.0512 19.684 13.3397 20.0004 13.6531 20.291Z" fill="#32499D"/>
<path d="M16.6048 22.0488H8.77731C8.6519 22.0488 8.53162 21.9989 8.44294 21.9103C8.35426 21.8216 8.30444 21.7013 8.30444 21.5759C8.30444 21.4505 8.35426 21.3302 8.44294 21.2415C8.53162 21.1528 8.6519 21.103 8.77731 21.103H14.6727C15.2707 21.5047 15.9207 21.8229 16.6048 22.0488Z" fill="#32499D"/>
<path d="M28.876 18.399L30.0388 22.4339C30.0394 22.436 30.0395 22.4383 30.0391 22.4405C30.0387 22.4427 30.0378 22.4449 30.0365 22.4467C30.0352 22.4485 30.0335 22.4501 30.0316 22.4512C30.0296 22.4523 30.0275 22.453 30.0252 22.4532H21.2074C21.2034 22.4528 21.1997 22.4511 21.1969 22.4482C21.1941 22.4454 21.1923 22.4417 21.1919 22.4377V18.4145C21.1919 18.4104 21.1935 18.4064 21.1964 18.4035C21.1993 18.4006 21.2033 18.399 21.2074 18.399H23.9012C23.9806 18.3988 24.0589 18.3801 24.1298 18.3445C24.2008 18.309 24.2626 18.2574 24.3103 18.1939C24.358 18.1305 24.3903 18.0568 24.4048 17.9787C24.4192 17.9006 24.4153 17.8203 24.3934 17.7439L24.1996 17.1005L23.9574 16.2536L23.907 16.0792L23.8237 16.0928L22.7074 16.2536L18.6977 16.835C18.5368 16.8588 18.3893 16.938 18.2806 17.059C18.1719 17.18 18.1089 17.3351 18.1025 17.4976C18.0961 17.6601 18.1466 17.8197 18.2454 17.9489C18.3441 18.0781 18.4849 18.1688 18.6434 18.2052C18.7907 18.2401 18.94 18.2711 19.0911 18.2963C19.0945 18.2971 19.0975 18.2992 19.0996 18.302C19.1018 18.3048 19.1029 18.3082 19.1027 18.3118V22.4416C19.1028 22.4454 19.1014 22.4491 19.0989 22.4519C19.0964 22.4548 19.0929 22.4566 19.0892 22.4571C17.5101 22.4534 15.9677 21.9812 14.657 21.1005C14.2951 20.8589 13.9541 20.5872 13.6376 20.2885C13.3297 19.9979 13.0464 19.6822 12.7907 19.3447C12.558 19.0452 12.3475 18.7291 12.1609 18.399C12.0508 18.2105 11.9505 18.0164 11.8605 17.8176C11.7101 17.4995 11.5806 17.1719 11.4729 16.837L11.4186 16.6432L11.3062 16.2556L11.0465 15.3079L10.812 14.4939L10.6376 13.8854L10.5407 13.5482L10.0427 11.804C10.0407 11.8011 10.0397 11.7978 10.0397 11.7943C10.0397 11.7909 10.0407 11.7875 10.0427 11.7846L11.7868 11.2556L13.531 10.7207L13.9051 10.6083C13.9075 10.6062 13.9106 10.6051 13.9138 10.6051C13.917 10.6051 13.9201 10.6062 13.9225 10.6083L14.6977 13.2711C14.6986 13.2743 14.7007 13.2771 14.7036 13.2789C14.7064 13.2807 14.7099 13.2814 14.7132 13.2808L24.5969 11.8525C24.6002 11.8525 24.6034 11.8513 24.6059 11.8492C24.6084 11.8471 24.61 11.8441 24.6105 11.8408L25.2132 9.28658L25.2539 9.10828H11.5969C10.7387 9.1109 9.88993 8.92846 9.10856 8.5734C8.57454 8.33195 8.07893 8.0133 7.63762 7.62766C7.33629 7.36672 7.06227 7.07582 6.81979 6.75944C6.59063 6.4643 6.39072 6.14756 6.2229 5.81371C6.11805 5.61333 6.02676 5.40615 5.94964 5.19355C5.9322 5.14898 5.91476 5.10247 5.89925 5.05595C5.80921 4.79194 5.73797 4.52189 5.68607 4.24782C5.62783 3.94859 5.5922 3.64541 5.57949 3.34084C5.57921 3.3389 5.57935 3.33693 5.5799 3.33505C5.58046 3.33317 5.58141 3.33144 5.5827 3.32997C5.58399 3.32849 5.58558 3.32732 5.58737 3.32652C5.58916 3.32572 5.59109 3.32531 5.59305 3.32533H9.96708C9.96902 3.32505 9.97099 3.3252 9.97287 3.32575C9.97475 3.32631 9.97648 3.32726 9.97795 3.32855C9.97943 3.32984 9.9806 3.33143 9.9814 3.33322C9.9822 3.33501 9.98261 3.33694 9.98259 3.3389C9.97094 3.54428 10.0033 3.74977 10.0775 3.94161C10.1165 4.04894 10.1672 4.15163 10.2287 4.24782C10.3913 4.49806 10.6143 4.70329 10.8771 4.84454C11.14 4.98579 11.4342 5.0585 11.7326 5.05595H28.5931C28.8144 5.05778 29.0325 5.10914 29.2313 5.20625C29.4302 5.30337 29.6048 5.44378 29.7424 5.61718C29.8799 5.79058 29.9769 5.99258 30.0261 6.20835C30.0754 6.42411 30.0758 6.64818 30.0272 6.86409L29.5097 9.10053L28.1415 15.0424C28.0778 15.3214 28.0851 15.6119 28.1628 15.8874L28.876 18.399Z" fill="#32499D"/>
<path d="M19.1106 23.3547C19.1106 23.7356 18.9593 24.1009 18.69 24.3702C18.4207 24.6395 18.0554 24.7908 17.6746 24.7908C17.2937 24.7908 16.9284 24.6395 16.6591 24.3702C16.3898 24.1009 16.2385 23.7356 16.2385 23.3547H19.1106Z" fill="#32499D"/>
<path d="M27.1978 23.3547C27.1978 23.7356 27.0465 24.1009 26.7772 24.3702C26.5079 24.6395 26.1426 24.7908 25.7617 24.7908C25.3809 24.7908 25.0156 24.6395 24.7463 24.3702C24.477 24.1009 24.3257 23.7356 24.3257 23.3547H27.1978Z" fill="#32499D"/>
</svg>
